<svg width="1464" height="816" viewBox="0 0 1464 816" fill="none" xmlns="http://www.w3.org/2000/svg">
<path d="M0 12C0 5.37259 5.37258 0 12 0H1453C1459.63 0 1465 5.37258 1465 12V804C1465 810.627 1459.63 816 1453 816H1039.32C1036.5 816 1033.77 815.007 1031.61 813.195L988.392 776.958C986.232 775.147 983.502 774.154 980.682 774.154H485.087C482.332 774.154 479.661 775.102 477.522 776.838L432.599 813.316C430.46 815.052 427.789 816 425.035 816H12C5.37257 816 0 810.627 0 804V12Z" fill="#F0F0F9"/>
</svg>
